HIERARCHY
ROOT Hips
{
  OFFSET 57.8838 95.319 338.509
  CHANNELS 6 Xposition Yposition Zposition Zrotation Xrotation Yrotation
  JOINT LeftUpLeg
  {
    OFFSET 8.64259 1.95398 -2.38835
    CHANNELS 3 Zrotation Xrotation Yrotation
    JOINT LeftLeg
    {
      OFFSET 43.7702 0 0
      CHANNELS 3 Zrotation Xrotation Yrotation
      JOINT LeftFoot
      {
        OFFSET 40.6238 0 0
        CHANNELS 3 Zrotation Xrotation Yrotation
        JOINT LeftToeBase
        {
          OFFSET 12.7242 0 0
          CHANNELS 3 Zrotation Xrotation Yrotation
          End Site
          {
            OFFSET 0 0 0
          }
        }
      }
    }
  }
  JOINT RightUpLeg
  {
    OFFSET -8.2249 1.95398 -2.59336
    CHANNELS 3 Zrotation Xrotation Yrotation
    JOINT RightLeg
    {
      OFFSET 43.5653 0 0
      CHANNELS 3 Zrotation Xrotation Yrotation
      JOINT RightFoot
      {
        OFFSET 40.6238 0 0
        CHANNELS 3 Zrotation Xrotation Yrotation
        JOINT RightToeBase
        {
          OFFSET 12.7242 0 0
          CHANNELS 3 Zrotation Xrotation Yrotation
          End Site
          {
            OFFSET 0 0 0
          }
        }
      }
    }
  }
  JOINT Spine
  {
    OFFSET 0.165834 0.87714 6.61349
    CHANNELS 3 Zrotation Xrotation Yrotation
    JOINT Spine1
    {
      OFFSET 7.38963 1.71661e-005 0
      CHANNELS 3 Zrotation Xrotation Yrotation
      JOINT Spine2
      {
        OFFSET 11.9445 1.14441e-005 0
        CHANNELS 3 Zrotation Xrotation Yrotation
        JOINT Spine3
        {
          OFFSET 14.7254 4.19617e-005 0
          CHANNELS 3 Zrotation Xrotation Yrotation
          JOINT Spine4
          {
            OFFSET 10.9679 0 0
            CHANNELS 3 Zrotation Xrotation Yrotation
            JOINT RightShoulder
            {
              OFFSET 2.46616 -1.6653 3.69651
              CHANNELS 3 Zrotation Xrotation Yrotation
              JOINT RightArm
              {
                OFFSET 13.0012 0 0
                CHANNELS 3 Zrotation Xrotation Yrotation
                JOINT RightForeArm
                {
                  OFFSET 28.7848 1.62311e-005 0
                  CHANNELS 3 Zrotation Xrotation Yrotation
                  JOINT RightHand
                  {
                    OFFSET 26.5688 1.62095e-005 0
                    CHANNELS 3 Zrotation Xrotation Yrotation
                    End Site
                    {
                      OFFSET 0 0 0
                    }
                  }
                }
              }
            }
            JOINT LeftShoulder
            {
              OFFSET 2.38034 -1.29275 -3.7523
              CHANNELS 3 Zrotation Xrotation Yrotation
              JOINT LeftArm
              {
                OFFSET 16.3182 6.07031e-005 0
                CHANNELS 3 Zrotation Xrotation Yrotation
                JOINT LeftForeArm
                {
                  OFFSET 27.0901 0 0
                  CHANNELS 3 Zrotation Xrotation Yrotation
                  JOINT LeftHand
                  {
                    OFFSET 24.5451 1.51738e-005 0
                    CHANNELS 3 Zrotation Xrotation Yrotation
                    End Site
                    {
                      OFFSET 0 0 0
                    }
                  }
                }
              }
            }
            JOINT Neck
            {
              OFFSET 5.0226 -0.0266342 0
              CHANNELS 3 Zrotation Xrotation Yrotation
              JOINT Head
              {
                OFFSET 6.69364 2.86102e-005 0
                CHANNELS 3 Zrotation Xrotation Yrotation
                End Site
                {
                  OFFSET 0 0 0
                }
              }
            }
          }
        }
      }
    }
  }
}
MOTION
Frames:	9
Frame Time:	0.0416667
-0.676762 33.5404 -34.9152 165.797 -65.4999 166.356 -124.983 69.7545 49.1206 -155.234 -3.92995 4.30839 71.3742 13.6125 7.00959 64.6985 19.5964 15.2068 160.14 71.5354 77.9931 -155.161 -15.6435 -1.55703 74.8106 -23.6289 -5.60028 49.5856 -30.048 -5.87849 0.308926 13.3099 -90.7249 0.253963 0.347286 -1.39387 -11.4177 0.285602 -1.4078 -33.9483 0.750117 -1.22509 -13.9357 0.750111 -1.2251 96.4548 -30.9972 -93.5812 -30.1122 -39.8976 -73.6137 -47.161 10.8353 -70.1036 -37.2201 -7.43469 17.058 -83.7102 -30.1608 85.4767 -26.6986 15.2514 -60.3466 25.8141 27.4558 -62.3221 6.17837 -0.587165 -11.1379 26.3821 -3.09828 14.8384 8.19878 -9.35304 -11.2918 
-0.75256 33.5952 -34.8649 165.738 -65.5183 166.268 -124.809 69.6132 49.0761 -155.022 -4.90455 4.40948 71.734 13.6164 6.40713 67.2128 18.5562 8.15592 160.32 70.9848 77.9734 -155.129 -14.9094 -1.53903 76.2012 -24.327 -3.95232 48.3061 -29.0838 -7.64075 0.307235 13.3137 -90.7263 0.246114 0.34338 -1.39681 -11.4256 0.281573 -1.41057 -33.9562 0.74727 -1.22908 -13.9435 0.747272 -1.22908 96.4617 -30.8665 -93.5913 -29.7602 -39.899 -73.4645 -47.2274 10.655 -70.1578 -37.0697 -7.44001 17.1685 -83.7738 -30.1973 85.3593 -26.6424 15.511 -60.3245 24.0599 26.6955 -61.61 8.75467 -0.750777 -11.2281 27.0235 -3.001 13.869 7.27966 -8.77893 -9.96738 
-0.826851 33.5046 -34.9237 165.904 -65.1908 166.031 -126.967 69.4008 51.4243 -155.675 -1.65794 4.22663 71.8143 14.2478 7.7734 65.3771 18.2978 10.236 161.473 71.0146 76.8259 -155.31 -14.8855 -1.5307 76.2117 -24.262 -3.83331 48.1571 -29.0098 -7.93443 0.274576 13.3448 -90.7021 0.183871 0.287588 -1.35178 -11.4878 0.227819 -1.36313 -34.0185 0.680527 -1.20289 -14.0058 0.68053 -1.2029 96.4742 -30.7665 -93.5844 -29.7902 -39.8913 -73.5145 -47.4678 10.679 -70.1524 -35.797 -7.26257 17.4535 -83.784 -30.4331 85.3812 -27.5791 15.2789 -60.1292 26.8495 27.8254 -62.3527 3.43709 -0.531178 -13.0803 26.7529 -2.81092 14.6206 7.03372 -8.8855 -10.699 
-0.790363 33.4735 -34.939 165.449 -65.0096 165.508 -128.25 69.6086 52.598 -155.936 0.0747114 4.09482 71.5763 14.3453 8.33549 64.9547 18.1464 10.4492 161.749 70.9715 76.2993 -155.344 -14.7 -1.5432 76.1986 -24.2021 -3.87719 48.2764 -28.9726 -7.50172 0.247801 13.3689 -90.7101 0.135242 0.231521 -1.36969 -11.5364 0.171024 -1.37856 -34.0668 0.63243 -1.23682 -14.0541 0.632434 -1.23683 96.5682 -30.6651 -93.4133 -30.1141 -39.9311 -73.8798 -46.9777 10.7303 -69.5402 -41.1506 -7.74344 15.6117 -83.7279 -30.2517 85.4583 -27.678 15.2837 -60.234 27.1867 27.8873 -62.5207 2.79881 -0.496087 -13.3327 26.7283 -2.83424 14.39 7.06896 -8.78987 -10.2959 
-0.866364 33.4745 -35.0196 165.521 -64.9764 165.455 -127.911 69.6378 52.2067 -155.913 -0.0135947 4.15015 71.6336 14.3273 7.96369 64.7403 18.2265 11.0412 161.187 71.0977 76.9597 -155.333 -14.3253 -1.55851 76.2497 -24.2733 -3.82519 48.1441 -28.9796 -7.91169 0.247003 13.3687 -90.7008 0.135819 0.233338 -1.35159 -11.5358 0.173632 -1.36056 -34.0663 0.628734 -1.21901 -14.0537 0.628729 -1.21902 96.5386 -30.5178 -93.4999 -30.1603 -40.1036 -73.8076 -46.7241 11.3815 -69.4854 -40.3517 -7.22903 14.6725 -83.739 -30.4084 85.4641 -27.7505 15.2904 -60.2968 27.5421 28.1896 -62.5766 3.07187 -0.507055 -13.1439 26.4015 -2.85036 14.9018 7.01515 -9.00954 -11.043 
-0.881427 33.4512 -35.0442 165.658 -64.9292 165.574 -127.949 69.5638 52.2952 -155.926 0.0648763 4.15287 71.5568 14.341 8.21597 64.8777 18.2312 10.8307 161.452 71.0136 76.7166 -155.348 -14.7796 -1.51091 76.0469 -24.4348 -4.32586 48.1572 -28.9414 -7.794 0.256528 13.3676 -90.696 0.138059 0.25407 -1.3413 -11.5336 0.194801 -1.35119 -34.0642 0.645411 -1.20297 -14.0516 0.645407 -1.20298 96.4656 -30.3321 -93.6823 -29.722 -40.2198 -73.4789 -46.4984 11.5236 -69.7702 -40.4092 -7.27587 14.7682 -83.7972 -30.4119 85.3518 -27.6617 15.408 -60.1738 26.584 27.7932 -62.2506 3.92679 -0.552156 -12.5152 26.1648 -2.92034 14.8267 7.06913 -9.00792 -10.849 
-0.904519 33.4591 -35.1188 165.645 -64.8083 165.416 -127.698 69.475 51.963 -155.879 0.0969758 4.18589 71.3952 14.3004 8.15805 64.6894 18.104 10.753 161.41 70.9782 76.7314 -155.336 -14.7902 -1.50198 76.0102 -24.5292 -4.54344 48.1058 -28.9496 -7.96505 0.234151 13.381 -90.6781 0.111283 0.216272 -1.30819 -11.5603 0.158491 -1.31645 -34.0911 0.59941 -1.18275 -14.0785 0.599416 -1.18274 96.5551 -30.1997 -93.5248 -29.637 -40.239 -73.825 -46.5749 11.5438 -69.8139 -39.7677 -7.1871 14.8707 -83.773 -30.4775 85.4103 -27.6945 15.2649 -60.1622 26.0979 27.7957 -62.1711 9.91998 -0.671577 -10.0103 26.4408 -2.87243 14.5559 6.7855 -8.83709 -10.4139 
-0.91024 33.4765 -35.1441 165.521 -64.7588 165.405 -128.333 69.6107 52.612 -155.864 0.295175 4.15937 71.4587 14.4307 8.20597 64.7626 18.127 10.703 161.04 70.8201 77.0569 -155.285 -14.802 -1.50621 76.0484 -24.5692 -4.66851 48.1867 -28.9927 -7.81093 0.226391 13.3795 -90.6936 0.1141 0.195031 -1.33931 -11.5575 0.135907 -1.3466 -34.088 0.588504 -1.21882 -14.0754 0.588501 -1.21882 96.5788 -30.2482 -93.4678 -29.7554 -40.2067 -74.0812 -46.5382 11.4988 -69.812 -39.2377 -7.22306 15.258 -83.7798 -30.8619 85.464 -27.2633 15.204 -60.1366 26.0005 27.9795 -62.1718 12.5744 -0.657592 -8.69094 26.1639 -2.82906 14.8918 7.17164 -8.94821 -10.7692 
-0.899768 33.4653 -35.1476 165.441 -64.9275 165.423 -127.85 69.6304 52.0707 -155.838 -0.0150931 4.18172 71.5472 14.4917 8.23028 64.9628 18.3112 10.9338 160.505 71.0566 77.5226 -155.245 -14.7067 -1.53259 76.0806 -24.5275 -4.4948 48.2065 -28.9287 -7.62061 0.228349 13.3638 -90.71 0.145293 0.192646 -1.37149 -11.5264 0.132104 -1.37865 -34.0566 0.595897 -1.25022 -14.044 0.595904 -1.25023 96.6405 -30.0632 -93.376 -29.8755 -40.1411 -74.226 -46.25 11.6258 -69.9399 -39.6067 -7.329 15.3467 -83.7647 -30.8458 85.4904 -27.1279 15.341 -60.216 24.8627 27.5042 -61.5951 13.1741 -0.788465 -9.48769 26.3825 -2.80229 14.7294 6.96088 -8.84148 -10.3973 
